<svg width="29" height="29" viewBox="0 0 29 29" fill="none" xmlns="http://www.w3.org/2000/svg">
<path d="M7.09033 2.52588L3.59033 7.19255V23.5259C3.59033 24.1447 3.83616 24.7382 4.27375 25.1758C4.71133 25.6134 5.30483 25.8592 5.92367 25.8592H22.257C22.8758 25.8592 23.4693 25.6134 23.9069 25.1758C24.3445 24.7382 24.5903 24.1447 24.5903 23.5259V7.19255L21.0903 2.52588H7.09033Z" stroke="#1BB172" stroke-width="2.33333" stroke-linecap="round" stroke-linejoin="round"/>
<path d="M3.59033 7.19238H24.5903" stroke="#1BB172" stroke-width="2.33333" stroke-linecap="round" stroke-linejoin="round"/>
<path d="M18.7572 11.8589C18.7572 13.0966 18.2655 14.2835 17.3903 15.1587C16.5152 16.0339 15.3282 16.5256 14.0905 16.5256C12.8528 16.5256 11.6658 16.0339 10.7907 15.1587C9.91549 14.2835 9.42383 13.0966 9.42383 11.8589" stroke="#1BB172" stroke-width="2.33333" stroke-linecap="round" stroke-linejoin="round"/>
</svg>
