<svg width="29" height="29" viewBox="0 0 29 29" fill="none" xmlns="http://www.w3.org/2000/svg">
<path d="M18.814 15.1011L20.5815 25.0481C20.6013 25.1652 20.5849 25.2856 20.5344 25.3931C20.4839 25.5007 20.4019 25.5902 20.2991 25.6498C20.1964 25.7095 20.0779 25.7363 19.9595 25.7267C19.8411 25.7172 19.7284 25.6717 19.6365 25.5964L15.4599 22.4616C15.2582 22.3109 15.0133 22.2295 14.7616 22.2295C14.5099 22.2295 14.265 22.3109 14.0634 22.4616L9.87969 25.5952C9.7879 25.6704 9.67536 25.7158 9.5571 25.7254C9.43884 25.7349 9.32047 25.7082 9.2178 25.6488C9.11512 25.5893 9.03301 25.5 8.98243 25.3926C8.93184 25.2853 8.91519 25.1651 8.93469 25.0481L10.701 15.1011" stroke="#E900A7" stroke-width="2.33333" stroke-linecap="round" stroke-linejoin="round"/>
<path d="M14.7578 16.396C18.6238 16.396 21.7578 13.262 21.7578 9.396C21.7578 5.53 18.6238 2.396 14.7578 2.396C10.8918 2.396 7.75781 5.53 7.75781 9.396C7.75781 13.262 10.8918 16.396 14.7578 16.396Z" stroke="#E900A7" stroke-width="2.33333" stroke-linecap="round" stroke-linejoin="round"/>
</svg>
