<svg width="99" height="33" viewBox="0 0 99 33" fill="none" xmlns="http://www.w3.org/2000/svg">
<g clip-path="url(#clip0_8826_10874)">
<path d="M28.082 22.0507C28.082 22.5951 27.7916 23.0982 27.3201 23.3704L16.967 29.3471C16.4955 29.6193 15.9147 29.6193 15.4432 29.3471L5.09102 23.3704C4.61954 23.0982 4.3291 22.5951 4.3291 22.0507V14.9188C4.3291 13.7465 5.59738 13.0133 6.61326 13.5982L15.4448 18.6832C15.9154 18.9542 16.4947 18.9542 16.9654 18.6832L25.7979 13.5981C26.8138 13.0132 28.082 13.7465 28.082 14.9187V22.0507Z" fill="#FF6B35"/>
<path d="M25.7455 8.66071L16.9707 3.56562C16.4976 3.29091 15.9135 3.29091 15.4404 3.56562L6.6655 8.66071C5.65396 9.24805 5.65396 10.7089 6.66549 11.2963L15.4404 16.3913C15.9135 16.6661 16.4976 16.6661 16.9707 16.3913L25.7455 11.2963C26.7571 10.7089 26.7571 9.24805 25.7455 8.66071Z" fill="#FF6B35"/>
<path d="M42.7943 22.5331C38.8034 22.492 37.4457 20.5377 37.1577 18.2748L40.0583 17.6988C40.3669 19.18 41.4571 19.9823 43 19.9823C44.2343 19.9823 44.9337 19.5708 44.9337 18.7685C44.9337 18.0074 44.296 17.5754 42.0949 17.2463C38.6594 16.7525 37.5897 15.292 37.5897 13.3583C37.5897 11.0543 39.256 9.61426 42.4857 9.61426C45.88 9.61426 47.2994 11.3834 47.7109 13.5845L44.7897 14.1811C44.44 12.7823 43.8023 12.1034 42.3211 12.1034C41.1691 12.1034 40.5931 12.5765 40.5931 13.2965C40.5931 13.9343 40.9017 14.4485 43.5143 14.8188C47.0114 15.3948 47.9577 16.9171 47.9577 18.6657C47.9577 21.0314 46.3943 22.5331 42.7943 22.5331Z" fill="#282B35"/>
<path d="M53.3487 22.5125C50.4276 22.5125 48.3499 20.8257 48.3499 17.5754C48.3499 14.2017 50.2424 12.2268 53.3899 12.2268C56.3933 12.2268 57.8539 14.1194 57.8539 16.7937V16.9994C57.8539 17.3285 57.8744 17.6577 57.8127 18.0897H51.1476C51.3327 19.4885 52.0733 20.1057 53.3899 20.1057C54.6859 20.1057 55.1179 19.468 55.3441 18.7068L57.7716 19.3857C57.2779 21.1548 56.0436 22.5125 53.3487 22.5125ZM51.1476 16.5057H55.2824C55.2001 15.2097 54.5419 14.5514 53.3076 14.5514C52.0733 14.5514 51.3327 15.1274 51.1476 16.5057Z" fill="#282B35"/>
<path d="M58.6041 9.63483H61.4224V22.2451H58.6041V9.63483Z" fill="#282B35"/>
<path d="M62.5416 9.63483H65.3599V22.2451H62.5416V9.63483Z" fill="#282B35"/>
<path d="M69.1534 22.4508C67.4871 22.4508 66.1911 21.5251 66.1911 19.612C66.1911 17.8223 67.2402 16.6291 69.8116 16.6291H72.3419V16.2177C72.3419 15.148 71.8894 14.5925 70.8196 14.5925C69.8939 14.5925 69.2974 14.9834 69.1122 16.1354L66.4791 15.7651C66.7259 13.7491 67.8985 12.268 70.9431 12.268C73.9054 12.268 75.1396 13.708 75.1396 16.1971V22.2451H72.3419V19.8588H72.3008C71.8688 21.5251 70.8196 22.4508 69.1534 22.4508ZM72.3419 18.5011V18.2131H70.2436C69.4208 18.2131 68.9271 18.5628 68.9271 19.1183C68.9271 19.7148 69.2974 20.188 70.3671 20.188C71.5808 20.188 72.3419 19.4885 72.3419 18.5011Z" fill="#282B35"/>
<path d="M79.0407 12.4943V15.2303H79.0612C79.5344 12.988 80.6864 12.2268 82.2498 12.2268C84.2041 12.2268 85.1092 13.42 85.2532 15.292H85.2738C85.7058 12.988 86.8167 12.2268 88.4624 12.2268C90.5812 12.2268 91.4864 13.6051 91.4864 15.724V22.2451H88.6887V16.5263C88.6887 15.5388 88.2155 14.7571 87.0429 14.7571C85.9115 14.7571 85.2532 15.3948 85.2532 16.5263V22.2451H82.4555V16.5263C82.4555 15.5388 81.9824 14.7571 80.8304 14.7571C79.6784 14.7571 79.0407 15.3948 79.0407 16.5263V22.2451H76.2224V12.4943H79.0407Z" fill="#282B35"/>
</g>
<defs>
<clipPath id="clip0_8826_10874">
<rect width="97.5238" height="32" fill="white" transform="translate(0.586426 0.0737305)"/>
</clipPath>
</defs>
</svg>
