<svg width="29" height="29" viewBox="0 0 29 29" fill="none" xmlns="http://www.w3.org/2000/svg">
<path d="M23.7575 15.2294C23.7575 21.0627 19.6742 23.9794 14.8208 25.671C14.5667 25.7572 14.2906 25.753 14.0392 25.6594C9.17415 23.9794 5.09082 21.0627 5.09082 15.2294V7.0627C5.09082 6.75328 5.21374 6.45653 5.43253 6.23774C5.65132 6.01895 5.94807 5.89603 6.25749 5.89603C8.59082 5.89603 11.5075 4.49603 13.5375 2.7227C13.7847 2.51153 14.0991 2.39551 14.4242 2.39551C14.7492 2.39551 15.0637 2.51153 15.3108 2.7227C17.3525 4.5077 20.2575 5.89603 22.5908 5.89603C22.9002 5.89603 23.197 6.01895 23.4158 6.23774C23.6346 6.45653 23.7575 6.75328 23.7575 7.0627V15.2294Z" stroke="#6A0EC7" stroke-width="2.33333" stroke-linecap="round" stroke-linejoin="round"/>
</svg>
