<svg width="28" height="28" viewBox="0 0 28 28" fill="none" xmlns="http://www.w3.org/2000/svg">
  <path d="M22.75 8.75V16.3333C22.75 17.89 21.4792 19.1667 19.9167 19.1667H9.33333L5.25 23.25V8.75C5.25 7.19333 6.52083 5.91667 8.08333 5.91667H19.9167C21.4792 5.91667 22.75 7.19333 22.75 8.75ZM19.1667 12.25H8.83333C8.35583 12.25 7.97333 12.6383 7.97333 13.1167C7.97333 13.595 8.35583 13.9833 8.83333 13.9833H19.1667C19.6442 13.9833 20.0267 13.595 20.0267 13.1167C20.0267 12.6383 19.6442 12.25 19.1667 12.25ZM15.1667 16.3333H8.83333C8.35583 16.3333 7.97333 16.7217 7.97333 17.2C7.97333 17.6783 8.35583 18.0667 8.83333 18.0667H15.1667C15.6442 18.0667 16.0267 17.6783 16.0267 17.2C16.0267 16.7217 15.6442 16.3333 15.1667 16.3333ZM19.1667 8.16667H8.83333C8.35583 8.16667 7.97333 8.555 7.97333 9.03333C7.97333 9.51167 8.35583 9.9 8.83333 9.9H19.1667C19.6442 9.9 20.0267 9.51167 20.0267 9.03333C20.0267 8.555 19.6442 8.16667 19.1667 8.16667Z" fill="#FF6A00"/>
</svg> 