<svg width="28" height="28" viewBox="0 0 28 28" fill="none" xmlns="http://www.w3.org/2000/svg">
  <path d="M14 5.25C9.17 5.25 5.25 9.17 5.25 14C5.25 18.83 9.17 22.75 14 22.75C18.83 22.75 22.75 18.83 22.75 14C22.75 9.17 18.83 5.25 14 5.25ZM18.375 14.875H14.875V18.375C14.875 18.8562 14.4812 19.25 14 19.25C13.5188 19.25 13.125 18.8562 13.125 18.375V14.875H9.625C9.14375 14.875 8.75 14.4812 8.75 14C8.75 13.5188 9.14375 13.125 9.625 13.125H13.125V9.625C13.125 9.14375 13.5188 8.75 14 8.75C14.4812 8.75 14.875 9.14375 14.875 9.625V13.125H18.375C18.8562 13.125 19.25 13.5188 19.25 14C19.25 14.4812 18.8562 14.875 18.375 14.875Z" fill="#24C682"/>
</svg> 